<?xml version="1.0" encoding="utf-8"?>
<!-- Generator: Adobe Illustrator 19.0.0, SVG Export Plug-In . SVG Version: 6.00 Build 0)  -->
<svg version="1.1" id="Layer_1" xmlns="http://www.w3.org/2000/svg" xmlns:xlink="http://www.w3.org/1999/xlink" x="0px" y="0px"
	 viewBox="-13 -11 800 616" style="enable-background:new -13 -11 800 616;" xml:space="preserve">
<style type="text/css">
	.st0{fill:none;stroke:#000000;stroke-width:2;stroke-miterlimit:10;}
	.st1{fill:none;stroke:#000000;stroke-width:0.5;stroke-linecap:square;stroke-miterlimit:10;}
	.st2{font-family:'CourierNewPSMT';}
	.st3{font-size:20px;}
	.st4{font-family:'SourceCodePro-Regular';}
	.st5{font-size:18px;}
	.st6{opacity:0.2;fill:#64C8FF;enable-background:new    ;}
</style>
<g>
	<g>
		<path class="st0" d="M689,346.1h-97.6v-24.3"/>
		<path class="st0" d="M689,589h-97.6v-24.3"/>
		<path class="st0" d="M396.3,109.2h-97.6v45.5"/>
		<path class="st0" d="M591.4,564.7h-97.6v-36.4"/>
		<path class="st0" d="M689,54.6h-97.6V30.3"/>
		<path class="st0" d="M298.7,154.8h-97.6v47.1"/>
		<path class="st0" d="M591.4,30.3h-97.6v36.4"/>
		<path class="st0" d="M201.1,201.9h-97.6v60"/>
		<path class="st0" d="M689,491.8H493.9v36.4"/>
		<path class="st0" d="M689,151.8H396.3v-42.5"/>
		<path class="st0" d="M103.6,261.8H6V351"/>
		<path class="st0" d="M591.4,321.8H103.6v-60"/>
		<path class="st0" d="M689,297.5h-97.6v24.3"/>
		<path class="st0" d="M689,394.7H298.7v45.5"/>
		<path class="st0" d="M689,200.3H298.7v-45.5"/>
		<path class="st0" d="M298.7,440.2H6V351"/>
		<path class="st0" d="M396.3,485.8h-97.6v-45.5"/>
		<path class="st0" d="M689,6h-97.6v24.3"/>
		<path class="st0" d="M689,248.9H201.1v-47.1"/>
		<path class="st0" d="M689,103.2H493.9V66.7"/>
		<path class="st0" d="M493.9,66.7h-97.6v42.5"/>
		<path class="st0" d="M689,540.4h-97.6v24.3"/>
		<path class="st0" d="M6,351L6,351"/>
		<path class="st0" d="M689,443.3H396.3v42.5"/>
		<path class="st0" d="M493.9,528.3h-97.6v-42.5"/>
		<path d="M595.4,321.8c0,2.2-1.8,4-4,4c-2.2,0-4-1.8-4-4c0-2.2,1.8-4,4-4C593.6,317.8,595.4,319.6,595.4,321.8z"/>
		<path class="st1" d="M595.4,321.8c0,2.2-1.8,4-4,4c-2.2,0-4-1.8-4-4c0-2.2,1.8-4,4-4C593.6,317.8,595.4,319.6,595.4,321.8z"/>
		<path d="M693,346.1c0,2.2-1.8,4-4,4s-4-1.8-4-4c0-2.2,1.8-4,4-4S693,343.9,693,346.1z"/>
		<path class="st1" d="M693,346.1c0,2.2-1.8,4-4,4s-4-1.8-4-4c0-2.2,1.8-4,4-4S693,343.9,693,346.1z"/>
		<path d="M693,297.5c0,2.2-1.8,4-4,4s-4-1.8-4-4s1.8-4,4-4S693,295.3,693,297.5z"/>
		<path class="st1" d="M693,297.5c0,2.2-1.8,4-4,4s-4-1.8-4-4s1.8-4,4-4S693,295.3,693,297.5z"/>
		<path d="M693,200.3c0,2.2-1.8,4-4,4s-4-1.8-4-4c0-2.2,1.8-4,4-4S693,198.1,693,200.3z"/>
		<path class="st1" d="M693,200.3c0,2.2-1.8,4-4,4s-4-1.8-4-4c0-2.2,1.8-4,4-4S693,198.1,693,200.3z"/>
		<path d="M693,394.7c0,2.2-1.8,4-4,4s-4-1.8-4-4c0-2.2,1.8-4,4-4S693,392.5,693,394.7z"/>
		<path class="st1" d="M693,394.7c0,2.2-1.8,4-4,4s-4-1.8-4-4c0-2.2,1.8-4,4-4S693,392.5,693,394.7z"/>
		<path d="M302.7,440.2c0,2.2-1.8,4-4,4s-4-1.8-4-4c0-2.2,1.8-4,4-4S302.7,438,302.7,440.2z"/>
		<path class="st1" d="M302.7,440.2c0,2.2-1.8,4-4,4s-4-1.8-4-4c0-2.2,1.8-4,4-4S302.7,438,302.7,440.2z"/>
		<path d="M400.3,485.8c0,2.2-1.8,4-4,4s-4-1.8-4-4s1.8-4,4-4S400.3,483.6,400.3,485.8z"/>
		<path class="st1" d="M400.3,485.8c0,2.2-1.8,4-4,4s-4-1.8-4-4s1.8-4,4-4S400.3,483.6,400.3,485.8z"/>
		<path d="M693,6c0,2.2-1.8,4-4,4s-4-1.8-4-4s1.8-4,4-4S693,3.8,693,6z"/>
		<path class="st1" d="M693,6c0,2.2-1.8,4-4,4s-4-1.8-4-4s1.8-4,4-4S693,3.8,693,6z"/>
		<path d="M693,103.2c0,2.2-1.8,4-4,4s-4-1.8-4-4c0-2.2,1.8-4,4-4S693,101,693,103.2z"/>
		<path class="st1" d="M693,103.2c0,2.2-1.8,4-4,4s-4-1.8-4-4c0-2.2,1.8-4,4-4S693,101,693,103.2z"/>
		<path d="M693,248.9c0,2.2-1.8,4-4,4s-4-1.8-4-4c0-2.2,1.8-4,4-4S693,246.7,693,248.9z"/>
		<path class="st1" d="M693,248.9c0,2.2-1.8,4-4,4s-4-1.8-4-4c0-2.2,1.8-4,4-4S693,246.7,693,248.9z"/>
		<path d="M693,589c0,2.2-1.8,4-4,4s-4-1.8-4-4s1.8-4,4-4S693,586.8,693,589z"/>
		<path class="st1" d="M693,589c0,2.2-1.8,4-4,4s-4-1.8-4-4s1.8-4,4-4S693,586.8,693,589z"/>
		<path d="M400.3,109.2c0,2.2-1.8,4-4,4s-4-1.8-4-4c0-2.2,1.8-4,4-4S400.3,107,400.3,109.2z"/>
		<path class="st1" d="M400.3,109.2c0,2.2-1.8,4-4,4s-4-1.8-4-4c0-2.2,1.8-4,4-4S400.3,107,400.3,109.2z"/>
		<path d="M595.4,564.7c0,2.2-1.8,4-4,4c-2.2,0-4-1.8-4-4c0-2.2,1.8-4,4-4C593.6,560.7,595.4,562.5,595.4,564.7z"/>
		<path class="st1" d="M595.4,564.7c0,2.2-1.8,4-4,4c-2.2,0-4-1.8-4-4c0-2.2,1.8-4,4-4C593.6,560.7,595.4,562.5,595.4,564.7z"/>
		<path d="M693,54.6c0,2.2-1.8,4-4,4s-4-1.8-4-4c0-2.2,1.8-4,4-4S693,52.4,693,54.6z"/>
		<path class="st1" d="M693,54.6c0,2.2-1.8,4-4,4s-4-1.8-4-4c0-2.2,1.8-4,4-4S693,52.4,693,54.6z"/>
		<path d="M497.9,66.7c0,2.2-1.8,4-4,4c-2.2,0-4-1.8-4-4c0-2.2,1.8-4,4-4C496.1,62.7,497.9,64.5,497.9,66.7z"/>
		<path class="st1" d="M497.9,66.7c0,2.2-1.8,4-4,4c-2.2,0-4-1.8-4-4c0-2.2,1.8-4,4-4C496.1,62.7,497.9,64.5,497.9,66.7z"/>
		<path d="M302.7,154.8c0,2.2-1.8,4-4,4s-4-1.8-4-4c0-2.2,1.8-4,4-4S302.7,152.6,302.7,154.8z"/>
		<path class="st1" d="M302.7,154.8c0,2.2-1.8,4-4,4s-4-1.8-4-4c0-2.2,1.8-4,4-4S302.7,152.6,302.7,154.8z"/>
		<path d="M595.4,30.3c0,2.2-1.8,4-4,4c-2.2,0-4-1.8-4-4c0-2.2,1.8-4,4-4C593.6,26.3,595.4,28.1,595.4,30.3z"/>
		<path class="st1" d="M595.4,30.3c0,2.2-1.8,4-4,4c-2.2,0-4-1.8-4-4c0-2.2,1.8-4,4-4C593.6,26.3,595.4,28.1,595.4,30.3z"/>
		<path d="M205.1,201.9c0,2.2-1.8,4-4,4c-2.2,0-4-1.8-4-4c0-2.2,1.8-4,4-4C203.4,197.9,205.1,199.6,205.1,201.9z"/>
		<path class="st1" d="M205.1,201.9c0,2.2-1.8,4-4,4c-2.2,0-4-1.8-4-4c0-2.2,1.8-4,4-4C203.4,197.9,205.1,199.6,205.1,201.9z"/>
		<path d="M693,540.4c0,2.2-1.8,4-4,4s-4-1.8-4-4c0-2.2,1.8-4,4-4S693,538.2,693,540.4z"/>
		<path class="st1" d="M693,540.4c0,2.2-1.8,4-4,4s-4-1.8-4-4c0-2.2,1.8-4,4-4S693,538.2,693,540.4z"/>
		<path d="M693,491.8c0,2.2-1.8,4-4,4s-4-1.8-4-4c0-2.2,1.8-4,4-4S693,489.6,693,491.8z"/>
		<path class="st1" d="M693,491.8c0,2.2-1.8,4-4,4s-4-1.8-4-4c0-2.2,1.8-4,4-4S693,489.6,693,491.8z"/>
		<path d="M693,151.8c0,2.2-1.8,4-4,4s-4-1.8-4-4s1.8-4,4-4S693,149.5,693,151.8z"/>
		<path class="st1" d="M693,151.8c0,2.2-1.8,4-4,4s-4-1.8-4-4s1.8-4,4-4S693,149.5,693,151.8z"/>
		<path d="M693,443.3c0,2.2-1.8,4-4,4s-4-1.8-4-4s1.8-4,4-4S693,441,693,443.3z"/>
		<path class="st1" d="M693,443.3c0,2.2-1.8,4-4,4s-4-1.8-4-4s1.8-4,4-4S693,441,693,443.3z"/>
		<path d="M10,351c0,2.2-1.8,4-4,4s-4-1.8-4-4c0-2.2,1.8-4,4-4S10,348.8,10,351z"/>
		<path class="st1" d="M10,351c0,2.2-1.8,4-4,4s-4-1.8-4-4c0-2.2,1.8-4,4-4S10,348.8,10,351z"/>
		<path d="M107.6,261.8c0,2.2-1.8,4-4,4c-2.2,0-4-1.8-4-4c0-2.2,1.8-4,4-4C105.8,257.8,107.6,259.6,107.6,261.8z"/>
		<path class="st1" d="M107.6,261.8c0,2.2-1.8,4-4,4c-2.2,0-4-1.8-4-4c0-2.2,1.8-4,4-4C105.8,257.8,107.6,259.6,107.6,261.8z"/>
		<path d="M497.9,528.3c0,2.2-1.8,4-4,4c-2.2,0-4-1.8-4-4c0-2.2,1.8-4,4-4C496.1,524.3,497.9,526.1,497.9,528.3z"/>
		<path class="st1" d="M497.9,528.3c0,2.2-1.8,4-4,4c-2.2,0-4-1.8-4-4c0-2.2,1.8-4,4-4C496.1,524.3,497.9,526.1,497.9,528.3z"/>
	</g>
	<g transform="matrix(1,0,0,1,694,334.5833)">
		<text transform="matrix(1 0 0 1 0 17)" class="st2 st3">ISCAP</text>
	</g>
	<g transform="matrix(1,0,0,1,694,286)">
		<text transform="matrix(1 0 0 1 0 17)" class="st2 st3">MOCCI</text>
	</g>
	<g transform="matrix(1,0,0,1,694,188.8333)">
		<text transform="matrix(1 0 0 1 0 17)" class="st2 st3">CSCUL*</text>
	</g>
	<g transform="matrix(1,0,0,1,694,383.1667)">
		<text transform="matrix(1 0 0 1 0 17)" class="st2 st3">CSCUL+</text>
	</g>
	<g transform="matrix(1,0,0,1,694,-5.5)">
		<text transform="matrix(1 0 0 1 0 17)" class="st2 st3">PTEPI*</text>
	</g>
	<g transform="matrix(1,0,0,1,694,91.6667)">
		<text transform="matrix(1 0 0 1 0 17)" class="st2 st3">SMIMO*</text>
	</g>
	<g transform="matrix(1,0,0,1,694,237.4167)">
		<text transform="matrix(1 0 0 1 0 17)" class="st2 st3">TURTI</text>
	</g>
	<g transform="matrix(1,0,0,1,694,577.5)">
		<text transform="matrix(1 0 0 1 0 17)" class="st2 st3">PTEPI+</text>
	</g>
	<g transform="matrix(1,0,0,1,694,43.0833)">
		<text transform="matrix(1 0 0 1 0 17)" class="st2 st3">LHESP*</text>
	</g>
	<g transform="matrix(1,0,0,1,694,480.3333)">
		<text transform="matrix(1 0 0 1 0 17)" class="st2 st3">SMIMO+</text>
	</g>
	<g transform="matrix(1,0,0,1,694,528.9167)">
		<text transform="matrix(1 0 0 1 0 17)" class="st2 st3">LHESP+</text>
	</g>
	<g transform="matrix(1,0,0,1,694,140.25)">
		<text transform="matrix(1 0 0 1 0 17)" class="st2 st3">LRECL*</text>
	</g>
	<g transform="matrix(1,0,0,1,694,431.75)">
		<text transform="matrix(1 0 0 1 0 17)" class="st2 st3">LRECL+</text>
	</g>
	<g transform="matrix(1,0,0,1,596.4286,310.2917)">
		<text transform="matrix(1 0 0 1 0 18)" class="st4 st5">&lt;5&gt;</text>
	</g>
	<g transform="matrix(1,0,0,1,596.4286,553.2083)">
		<text transform="matrix(1 0 0 1 0 18)" class="st4 st5">&lt;1&gt;</text>
	</g>
	<g transform="matrix(1,0,0,1,498.8571,55.2292)">
		<text transform="matrix(1 0 0 1 0 18)" class="st4 st5">&lt;7&gt;</text>
	</g>
	<g transform="matrix(1,0,0,1,596.4286,18.7917)">
		<text transform="matrix(1 0 0 1 0 18)" class="st4 st5">&lt;6&gt;</text>
	</g>
	<g transform="matrix(1,0,0,1,303.7143,143.2865)">
		<text transform="matrix(1 0 0 1 0 18)" class="st4 st5">&lt;9&gt;</text>
	</g>
	<g transform="matrix(1,0,0,1,206.1429,190.3516)">
		<text transform="matrix(1 0 0 1 0 18)" class="st4 st5">&lt;10&gt;</text>
	</g>
	<g transform="matrix(1,0,0,1,108.5714,250.3216)">
		<text transform="matrix(1 0 0 1 0 18)" class="st4 st5">&lt;11&gt;</text>
	</g>
	<g transform="matrix(1,0,0,1,401.2857,474.2604)">
		<text transform="matrix(1 0 0 1 0 18)" class="st4 st5">&lt;3&gt;</text>
	</g>
	<g transform="matrix(1,0,0,1,303.7143,428.7135)">
		<text transform="matrix(1 0 0 1 0 18)" class="st4 st5">&lt;4&gt;</text>
	</g>
	<g transform="matrix(1,0,0,1,401.2857,97.7396)">
		<text transform="matrix(1 0 0 1 0 18)" class="st4 st5">&lt;8&gt;</text>
	</g>
	<g transform="matrix(1,0,0,1,498.8571,516.7708)">
		<text transform="matrix(1 0 0 1 0 18)" class="st4 st5">&lt;2&gt;</text>
	</g>
</g>
<path class="st6" d="M303.6,600h464.7c10.4,0,18.6-6.4,18.6-14.2V389.2c0-7.9-8.2-14.2-18.6-14.2H303.6c-10.4,0-18.6,6.4-18.6,14.2
	v196.5C285,593.7,293.2,600,303.6,600z"/>
<path class="st6" d="M303.6,217h464.7c10.4,0,18.6-6.3,18.6-14V9.1c0-7.8-8.2-14-18.6-14H303.6C293.2-5,285,1.3,285,9.1V203
	C285,210.8,293.2,217,303.6,217z"/>
</svg>
