<?xml version="1.0" encoding="utf-8"?>
<!-- Generator: Adobe Illustrator 20.0.0, SVG Export Plug-In . SVG Version: 6.00 Build 0)  -->
<svg version="1.1" id="Layer_1" xmlns="http://www.w3.org/2000/svg" xmlns:xlink="http://www.w3.org/1999/xlink" x="0px" y="0px"
	 viewBox="0 0 850 655" style="enable-background:new 0 0 850 655;" xml:space="preserve">
<style type="text/css">
	.st0{opacity:0.4;fill:#DB6D00;enable-background:new    ;}
	.st1{fill:none;stroke:#000000;stroke-width:2;stroke-miterlimit:10;}
	
		.st2{opacity:0.4;fill:none;stroke:#000000;stroke-width:0.5;stroke-linecap:square;stroke-miterlimit:10;enable-background:new    ;}
	.st3{font-family:'CourierNewPSMT';}
	.st4{font-size:20px;}
	.st5{font-family:'SourceCodePro-Regular';}
	.st6{font-size:18px;}
</style>
<path class="st0" d="M102,230.2c0,25.9-21.2,47.1-47.1,47.1S7.8,256.1,7.8,230.2s21.2-47.1,47.1-47.1S102,204.3,102,230.2z"/>
<path class="st1" d="M743,368.1H330.1V441"/>
<path class="st1" d="M330.1,441H192.5v-78.1"/>
<path class="st1" d="M467.8,97.5H54.9v132.7"/>
<path class="st1" d="M467.8,513.9H330.1V441"/>
<path class="st1" d="M192.5,362.9H54.9V230.2"/>
<path class="st1" d="M743,534.7H605.4v41.6"/>
<path class="st1" d="M743,35H467.8v62.5"/>
<path class="st1" d="M605.4,159.9H467.8V97.5"/>
<path class="st1" d="M743,451.4H467.8v62.5"/>
<path class="st1" d="M743,618H605.4v-41.6"/>
<path class="st1" d="M743,284.9H192.5V363"/>
<path class="st1" d="M35.5,230.2h19.8"/>
<path class="st1" d="M743,118.3H605.4v41.6"/>
<path class="st1" d="M743,201.6H605.4V160"/>
<path class="st1" d="M605.4,576.4H467.8v-62.5"/>
<path class="st0" d="M755.6,451.4c0,7-5.6,12.6-12.6,12.6s-12.6-5.6-12.6-12.6c0-7,5.6-12.6,12.6-12.6
	C750.4,438.8,755.6,444.4,755.6,451.4z"/>
<path class="st0" d="M761.3,368.1c0,10.3-8.6,18.3-18.3,18.3s-18.3-8.6-18.3-18.3s8.6-18.3,18.3-18.3
	C753.9,349.8,761.3,357.8,761.3,368.1z"/>
<path class="st0" d="M775.7,618c0,18.3-14.8,32.7-32.7,32.7s-32.7-14.8-32.7-32.7s14.8-32.7,32.7-32.7
	C762,585.3,775.7,599.7,775.7,618z"/>
<path class="st0" d="M778.5,284.9c0,19.7-15.8,35.5-35.5,35.5s-35.5-15.8-35.5-35.5c0-19.7,15.8-35.5,35.5-35.5
	C763.5,249.4,778.5,264.4,778.5,284.9z"/>
<path class="st0" d="M341.9,441c0,6.5-5.3,11.8-11.8,11.8s-11.8-5.3-11.8-11.8s5.3-11.8,11.8-11.8
	C336.9,429.2,341.9,434.5,341.9,441z"/>
<path class="st0" d="M762.1,118.3c0,10.6-8.7,19.1-19.1,19.1s-19.1-8.7-19.1-19.1s8.7-19.1,19.1-19.1
	C754.1,99.2,762.1,107.7,762.1,118.3z"/>
<path class="st0" d="M758.1,201.6c0,8.4-6.7,15.1-15.1,15.1s-15.1-6.7-15.1-15.1s6.7-15.1,15.1-15.1
	C751.8,186.5,758.1,193.2,758.1,201.6z"/>
<path class="st0" d="M469.7,97.5c0,1.1-0.9,1.9-1.9,1.9s-1.9-0.9-1.9-1.9s0.9-1.9,1.9-1.9S469.7,96.4,469.7,97.5z"/>
<path class="st0" d="M478.8,513.9c0,6.1-5,11-11,11s-11-5-11-11s5-11,11-11S478.8,507.8,478.8,513.9z"/>
<path class="st0" d="M215,362.9c0,12.4-10.2,22.5-22.5,22.5c-12.4,0-22.5-10.2-22.5-22.5s10.2-22.5,22.5-22.5
	C204.9,340.4,215,350.5,215,362.9z"/>
<path class="st0" d="M751.6,534.7c0,4.8-3.8,8.6-8.6,8.6s-8.6-3.8-8.6-8.6s3.8-8.6,8.6-8.6S751.6,529.9,751.6,534.7z"/>
<path class="st0" d="M763.5,35c0,11.2-9.3,20.5-20.5,20.5s-20.5-9.3-20.5-20.5s9.3-20.5,20.5-20.5C754.8,14.5,763.5,23.8,763.5,35z"
	/>
<path class="st0" d="M610.5,576.4c0,2.9-2.3,5.1-5.1,5.1s-5.1-2.3-5.1-5.1s2.3-5.1,5.1-5.1S610.5,573.5,610.5,576.4z"/>
<path d="M606.5,159.9c0,0.6-0.5,1.1-1.1,1.1s-1.1-0.5-1.1-1.1s0.5-1.1,1.1-1.1S606.5,159.3,606.5,159.9z"/>
<path class="st2" d="M606.9,159.9c0,0.8-0.7,1.5-1.5,1.5s-1.5-0.7-1.5-1.5s0.7-1.5,1.5-1.5S606.9,159.1,606.9,159.9z"/>
<g transform="matrix(1,0,0,1,706.05,327.6429)">
	<text transform="matrix(1 0 0 1 74 46)" class="st3 st4">LRECL</text>
</g>
<g transform="matrix(1,0,0,1,706.05,410.9286)">
	<text transform="matrix(1 0 0 1 74 46)" class="st3 st4">SMIMO</text>
</g>
<g transform="matrix(1,0,0,1,706.05,577.5)">
	<text transform="matrix(1 0 0 1 74 46)" class="st3 st4">PTEPI</text>
</g>
<g transform="matrix(1,0,0,1,706.05,244.3571)">
	<text transform="matrix(1 0 0 1 74 46)" class="st3 st4">CSCUL</text>
</g>
<g transform="matrix(1,0,0,1,706.05,77.7857)">
	<text transform="matrix(1 0 0 1 74 46)" class="st3 st4">MOCCI</text>
</g>
<g transform="matrix(1,0,0,1,706.05,161.0714)">
	<text transform="matrix(1 0 0 1 74 46)" class="st3 st4">ISCAP</text>
</g>
<g transform="matrix(1,0,0,1,706.05,494.2143)">
	<text transform="matrix(1 0 0 1 74 46)" class="st3 st4">LHESP</text>
</g>
<g transform="matrix(1,0,0,1,706.05,-5.5)">
	<text transform="matrix(1 0 0 1 74 46)" class="st3 st4">TURTI</text>
</g>
<g transform="matrix(1,0,0,1,293.149,400.5179)">
	<text transform="matrix(1 0 0 1 58 47)" class="st5 st6">&lt;3&gt;</text>
</g>
<g transform="matrix(1,0,0,1,430.7827,56.9643)">
	<text transform="matrix(1 0 0 1 42 47)" class="st5 st6">&lt;6&gt;</text>
</g>
<g transform="matrix(1,0,0,1,430.7827,473.3929)">
	<text transform="matrix(1 0 0 1 54 47)" class="st5 st6">&lt;2&gt;</text>
</g>
<g transform="matrix(1,0,0,1,155.5153,322.4375)">
	<text transform="matrix(1 0 0 1 60 47)" class="st5 st6">&lt;4&gt;</text>
</g>
<g transform="matrix(1,0,0,1,568.4163,535.8571)">
	<text transform="matrix(1 0 0 1 42 47)" class="st5 st6">&lt;1&gt;</text>
</g>
<g transform="matrix(1,0,0,1,568.4163,119.4286)">
	<text transform="matrix(1 0 0 1 42 47)" class="st5 st6">&lt;5&gt;</text>
</g>
<g transform="matrix(1,0,0,1,430.7827,56.9643)">
	<text transform="matrix(1 0 0 1 -262 179.2361)" class="st5 st6">&lt;7&gt;</text>
</g>
</svg>
