<?xml version="1.0" encoding="utf-8"?>
<!-- Generator: Adobe Illustrator 19.0.0, SVG Export Plug-In . SVG Version: 6.00 Build 0)  -->
<svg version="1.1" id="Layer_1" xmlns="http://www.w3.org/2000/svg" xmlns:xlink="http://www.w3.org/1999/xlink" x="0px" y="0px"
	 viewBox="-3.4 78 892.5 631" style="enable-background:new -3.4 78 892.5 631;" xml:space="preserve">
<style type="text/css">
	.st0{opacity:0.4;fill:#DB6D00;}
	.st1{fill:none;stroke:#000000;stroke-width:2;stroke-miterlimit:10;}
	.st2{opacity:0.4;fill:none;stroke:#000000;stroke-width:0.5;stroke-linecap:square;stroke-miterlimit:10;}
	.st3{font-family:'CourierNewPSMT';}
	.st4{font-size:20px;}
	.st5{font-family:'SourceCodePro-Regular';}
	.st6{font-size:18px;}
</style>
<path class="st0" d="M223.9,296.2c0,59.4-48.6,108-108,108s-108-48.6-108-108s48.6-108,108-108S223.9,236.8,223.9,296.2z"/>
<path class="st1" d="M804,434.1H391.1V507"/>
<path class="st1" d="M391.1,507H253.5v-78.1"/>
<path class="st1" d="M528.8,163.5H115.9v132.7"/>
<path class="st1" d="M528.8,579.9H391.1V507"/>
<path class="st1" d="M253.5,428.9H115.9V296.2"/>
<path class="st1" d="M804,600.7H666.4v41.6"/>
<path class="st1" d="M804,101H528.8v62.5"/>
<path class="st1" d="M666.4,225.9H528.8v-62.4"/>
<path class="st1" d="M804,517.4H528.8v62.5"/>
<path class="st1" d="M804,684H666.4v-41.6"/>
<path class="st1" d="M804,350.9H253.5V429"/>
<path class="st1" d="M96.5,296.2h19.8"/>
<path class="st1" d="M804,184.3H666.4v41.6"/>
<path class="st1" d="M804,267.6H666.4V226"/>
<path class="st1" d="M666.4,642.4H528.8v-62.5"/>
<path class="st0" d="M806.9,517.4c0,1.6-1.3,2.9-2.9,2.9s-2.9-1.3-2.9-2.9c0-1.6,1.3-2.9,2.9-2.9
	C805.7,514.5,806.9,515.8,806.9,517.4z"/>
<path class="st0" d="M807.2,434.1c0,1.8-1.5,3.2-3.2,3.2s-3.2-1.5-3.2-3.2s1.5-3.2,3.2-3.2C805.9,430.9,807.2,432.3,807.2,434.1z"/>
<path class="st0" d="M812.6,684c0,4.8-3.9,8.6-8.6,8.6s-8.6-3.9-8.6-8.6s3.9-8.6,8.6-8.6C809,675.4,812.6,679.2,812.6,684z"/>
<path class="st0" d="M812.3,350.9c0,4.6-3.7,8.3-8.3,8.3s-8.3-3.7-8.3-8.3c0-4.6,3.7-8.3,8.3-8.3
	C808.8,342.6,812.3,346.1,812.3,350.9z"/>
<path class="st0" d="M409.8,507c0,10.3-8.4,18.7-18.7,18.7s-18.7-8.4-18.7-18.7c0-10.3,8.4-18.7,18.7-18.7
	C401.9,488.3,409.8,496.7,409.8,507z"/>
<path class="st0" d="M811.9,184.3c0,4.4-3.6,7.9-7.9,7.9s-7.9-3.6-7.9-7.9s3.6-7.9,7.9-7.9C808.6,176.4,811.9,179.9,811.9,184.3z"/>
<path class="st0" d="M808.3,267.6c0,2.4-1.9,4.3-4.3,4.3s-4.3-1.9-4.3-4.3s1.9-4.3,4.3-4.3C806.5,263.3,808.3,265.2,808.3,267.6z"/>
<path class="st0" d="M532,163.5c0,1.8-1.5,3.2-3.2,3.2s-3.2-1.5-3.2-3.2s1.5-3.2,3.2-3.2S532,161.7,532,163.5z"/>
<path class="st0" d="M543.9,579.9c0,8.3-6.8,15.1-15.1,15.1s-15.1-6.8-15.1-15.1c0-8.3,6.8-15.1,15.1-15.1S543.9,571.6,543.9,579.9z
	"/>
<path class="st0" d="M276.5,428.9c0,12.7-10.4,23-23,23c-12.7,0-23-10.4-23-23s10.4-23,23-23C266.2,405.9,276.5,416.2,276.5,428.9z"
	/>
<path class="st0" d="M805.8,600.7c0,1-0.8,1.8-1.8,1.8s-1.8-0.8-1.8-1.8s0.8-1.8,1.8-1.8C805,598.9,805.8,599.7,805.8,600.7z"/>
<path class="st0" d="M814.4,101c0,5.7-4.7,10.4-10.4,10.4s-10.4-4.7-10.4-10.4s4.7-10.4,10.4-10.4C810,90.6,814.4,95.3,814.4,101z"
	/>
<path class="st0" d="M668.9,642.4c0,1.4-1.1,2.5-2.5,2.5s-2.5-1.1-2.5-2.5s1.1-2.5,2.5-2.5S668.9,641,668.9,642.4z"/>
<path d="M667.5,225.9c0,0.6-0.5,1.1-1.1,1.1s-1.1-0.5-1.1-1.1s0.5-1.1,1.1-1.1S667.5,225.3,667.5,225.9z"/>
<path class="st2" d="M667.5,225.9c0,0.6-0.5,1.1-1.1,1.1s-1.1-0.5-1.1-1.1s0.5-1.1,1.1-1.1S667.5,225.3,667.5,225.9z"/>
<g transform="matrix(1,0,0,1,706.05,327.6429)">
	<text transform="matrix(1 0 0 1 112 112)" class="st3 st4">LRECL</text>
</g>
<g transform="matrix(1,0,0,1,706.05,410.9286)">
	<text transform="matrix(1 0 0 1 112 112)" class="st3 st4">SMIMO</text>
</g>
<g transform="matrix(1,0,0,1,706.05,577.5)">
	<text transform="matrix(1 0 0 1 112 112)" class="st3 st4">PTEPI</text>
</g>
<g transform="matrix(1,0,0,1,706.05,244.3571)">
	<text transform="matrix(1 0 0 1 112 112)" class="st3 st4">CSCUL</text>
</g>
<g transform="matrix(1,0,0,1,706.05,77.7857)">
	<text transform="matrix(1 0 0 1 112 112)" class="st3 st4">MOCCI</text>
</g>
<g transform="matrix(1,0,0,1,706.05,161.0714)">
	<text transform="matrix(1 0 0 1 112 112)" class="st3 st4">ISCAP</text>
</g>
<g transform="matrix(1,0,0,1,706.05,494.2143)">
	<text transform="matrix(1 0 0 1 112 112)" class="st3 st4">LHESP</text>
</g>
<g transform="matrix(1,0,0,1,706.05,-5.5)">
	<text transform="matrix(1 0 0 1 112 112)" class="st3 st4">TURTI</text>
</g>
<g transform="matrix(1,0,0,1,293.149,400.5179)">
	<text transform="matrix(1 0 0 1 119 113)" class="st5 st6">&lt;3&gt;</text>
</g>
<g transform="matrix(1,0,0,1,430.7827,56.9643)">
	<text transform="matrix(1 0 0 1 103 113)" class="st5 st6">&lt;6&gt;</text>
</g>
<g transform="matrix(1,0,0,1,430.7827,473.3929)">
	<text transform="matrix(1 0 0 1 115 113)" class="st5 st6">&lt;2&gt;</text>
</g>
<g transform="matrix(1,0,0,1,155.5153,322.4375)">
	<text transform="matrix(1 0 0 1 121 113)" class="st5 st6">&lt;4&gt;</text>
</g>
<g transform="matrix(1,0,0,1,568.4163,535.8571)">
	<text transform="matrix(1 0 0 1 103 113)" class="st5 st6">&lt;1&gt;</text>
</g>
<g transform="matrix(1,0,0,1,568.4163,119.4286)">
	<text transform="matrix(1 0 0 1 103 113)" class="st5 st6">&lt;5&gt;</text>
</g>
<g transform="matrix(1,0,0,1,430.7827,56.9643)">
	<text transform="matrix(1 0 0 1 -201 245.2361)" class="st5 st6">&lt;7&gt;</text>
</g>
</svg>
