<?xml version="1.0" encoding="utf-8"?>
<!-- Generator: Adobe Illustrator 19.0.0, SVG Export Plug-In . SVG Version: 6.00 Build 0)  -->
<svg version="1.1" id="Layer_1" xmlns="http://www.w3.org/2000/svg" xmlns:xlink="http://www.w3.org/1999/xlink" x="0px" y="0px"
	 viewBox="0 -8 817 624" style="enable-background:new 0 -8 817 624;" xml:space="preserve">
<style type="text/css">
	.st0{opacity:0.2;fill:#64C8FF;enable-background:new    ;}
	.st1{fill:none;stroke:#000000;stroke-width:2;stroke-miterlimit:10;}
	.st2{fill:none;stroke:#000000;stroke-width:0.5;stroke-linecap:square;stroke-miterlimit:10;}
	.st3{font-family:'CourierNewPSMT';}
	.st4{font-size:20px;}
	.st5{font-family:'SourceCodePro-Regular';}
	.st6{font-size:18px;}
</style>
<path class="st0" d="M151.6,605h613.8c13.7,0,24.6-10.3,24.6-23.1V263.1c0-12.8-10.9-23.1-24.6-23.1H151.6
	c-13.7,0-24.6,10.3-24.6,23.1v318.8C127,594.8,137.9,605,151.6,605z"/>
<g>
	<g>
		<path class="st1" d="M701,339.1H288.1V412"/>
		<path class="st1" d="M288.1,412H150.5v-78.1"/>
		<path class="st1" d="M425.8,68.5H12.9v132.7"/>
		<path class="st1" d="M425.8,484.9H288.1V412"/>
		<path class="st1" d="M150.5,333.9H12.9V201.2"/>
		<path class="st1" d="M701,505.7H563.4v41.6"/>
		<path class="st1" d="M701,6H425.8v62.5"/>
		<path class="st1" d="M563.4,130.9H425.8V68.5"/>
		<path class="st1" d="M701,422.4H425.8v62.5"/>
		<path class="st1" d="M701,589H563.4v-41.6"/>
		<path class="st1" d="M701,255.9H150.5v78.1"/>
		<path class="st1" d="M6,201.2h6.9"/>
		<path class="st1" d="M701,89.3H563.4v41.6"/>
		<path class="st1" d="M701,172.6H563.4v-41.6"/>
		<path class="st1" d="M563.4,547.4H425.8v-62.5"/>
		<path d="M705,422.4c0,2.2-1.8,4-4,4c-2.2,0-4-1.8-4-4c0-2.2,1.8-4,4-4C703.3,418.4,705,420.2,705,422.4z"/>
		<path class="st2" d="M705,422.4c0,2.2-1.8,4-4,4c-2.2,0-4-1.8-4-4c0-2.2,1.8-4,4-4C703.3,418.4,705,420.2,705,422.4z"/>
		<path d="M705,339.1c0,2.2-1.8,4-4,4c-2.2,0-4-1.8-4-4c0-2.2,1.8-4,4-4C703.3,335.1,705,336.9,705,339.1z"/>
		<path class="st2" d="M705,339.1c0,2.2-1.8,4-4,4c-2.2,0-4-1.8-4-4c0-2.2,1.8-4,4-4C703.3,335.1,705,336.9,705,339.1z"/>
		<path d="M705,589c0,2.2-1.8,4-4,4c-2.2,0-4-1.8-4-4s1.8-4,4-4C703.3,585,705,586.8,705,589z"/>
		<path class="st2" d="M705,589c0,2.2-1.8,4-4,4c-2.2,0-4-1.8-4-4s1.8-4,4-4C703.3,585,705,586.8,705,589z"/>
		<path d="M705,255.9c0,2.2-1.8,4-4,4c-2.2,0-4-1.8-4-4c0-2.2,1.8-4,4-4C703.3,251.9,705,253.6,705,255.9z"/>
		<path class="st2" d="M705,255.9c0,2.2-1.8,4-4,4c-2.2,0-4-1.8-4-4c0-2.2,1.8-4,4-4C703.3,251.9,705,253.6,705,255.9z"/>
		<path d="M16.9,201.2c0,2.2-1.8,4-4,4c-2.2,0-4-1.8-4-4c0-2.2,1.8-4,4-4C15.1,197.2,16.9,199,16.9,201.2z"/>
		<path class="st2" d="M16.9,201.2c0,2.2-1.8,4-4,4c-2.2,0-4-1.8-4-4c0-2.2,1.8-4,4-4C15.1,197.2,16.9,199,16.9,201.2z"/>
		<path d="M292.1,412c0,2.2-1.8,4-4,4c-2.2,0-4-1.8-4-4c0-2.2,1.8-4,4-4C290.4,408,292.1,409.8,292.1,412z"/>
		<path class="st2" d="M292.1,412c0,2.2-1.8,4-4,4c-2.2,0-4-1.8-4-4c0-2.2,1.8-4,4-4C290.4,408,292.1,409.8,292.1,412z"/>
		<path d="M705,89.3c0,2.2-1.8,4-4,4c-2.2,0-4-1.8-4-4c0-2.2,1.8-4,4-4C703.3,85.3,705,87.1,705,89.3z"/>
		<path class="st2" d="M705,89.3c0,2.2-1.8,4-4,4c-2.2,0-4-1.8-4-4c0-2.2,1.8-4,4-4C703.3,85.3,705,87.1,705,89.3z"/>
		<path d="M705,172.6c0,2.2-1.8,4-4,4c-2.2,0-4-1.8-4-4c0-2.2,1.8-4,4-4C703.3,168.6,705,170.4,705,172.6z"/>
		<path class="st2" d="M705,172.6c0,2.2-1.8,4-4,4c-2.2,0-4-1.8-4-4c0-2.2,1.8-4,4-4C703.3,168.6,705,170.4,705,172.6z"/>
		<path d="M429.8,68.5c0,2.2-1.8,4-4,4c-2.2,0-4-1.8-4-4c0-2.2,1.8-4,4-4C428,64.5,429.8,66.3,429.8,68.5z"/>
		<path class="st2" d="M429.8,68.5c0,2.2-1.8,4-4,4c-2.2,0-4-1.8-4-4c0-2.2,1.8-4,4-4C428,64.5,429.8,66.3,429.8,68.5z"/>
		<path d="M429.8,484.9c0,2.2-1.8,4-4,4c-2.2,0-4-1.8-4-4c0-2.2,1.8-4,4-4C428,480.9,429.8,482.7,429.8,484.9z"/>
		<path class="st2" d="M429.8,484.9c0,2.2-1.8,4-4,4c-2.2,0-4-1.8-4-4c0-2.2,1.8-4,4-4C428,480.9,429.8,482.7,429.8,484.9z"/>
		<path d="M154.5,333.9c0,2.2-1.8,4-4,4c-2.2,0-4-1.8-4-4s1.8-4,4-4C152.7,329.9,154.5,331.7,154.5,333.9z"/>
		<path class="st2" d="M154.5,333.9c0,2.2-1.8,4-4,4c-2.2,0-4-1.8-4-4s1.8-4,4-4C152.7,329.9,154.5,331.7,154.5,333.9z"/>
		<path d="M705,505.7c0,2.2-1.8,4-4,4c-2.2,0-4-1.8-4-4s1.8-4,4-4C703.3,501.7,705,503.5,705,505.7z"/>
		<path class="st2" d="M705,505.7c0,2.2-1.8,4-4,4c-2.2,0-4-1.8-4-4s1.8-4,4-4C703.3,501.7,705,503.5,705,505.7z"/>
		<path d="M705,6c0,2.2-1.8,4-4,4c-2.2,0-4-1.8-4-4s1.8-4,4-4C703.3,2,705,3.8,705,6z"/>
		<path class="st2" d="M705,6c0,2.2-1.8,4-4,4c-2.2,0-4-1.8-4-4s1.8-4,4-4C703.3,2,705,3.8,705,6z"/>
		<path d="M567.4,547.4c0,2.2-1.8,4-4,4s-4-1.8-4-4c0-2.2,1.8-4,4-4S567.4,545.1,567.4,547.4z"/>
		<path class="st2" d="M567.4,547.4c0,2.2-1.8,4-4,4s-4-1.8-4-4c0-2.2,1.8-4,4-4S567.4,545.1,567.4,547.4z"/>
		<path d="M567.4,130.9c0,2.2-1.8,4-4,4s-4-1.8-4-4c0-2.2,1.8-4,4-4S567.4,128.7,567.4,130.9z"/>
		<path class="st2" d="M567.4,130.9c0,2.2-1.8,4-4,4s-4-1.8-4-4c0-2.2,1.8-4,4-4S567.4,128.7,567.4,130.9z"/>
	</g>
	<g transform="matrix(1,0,0,1,706.05,327.6429)">
		<text transform="matrix(1 0 0 1 0 17)" class="st3 st4">LRECL</text>
	</g>
	<g transform="matrix(1,0,0,1,706.05,410.9286)">
		<text transform="matrix(1 0 0 1 0 17)" class="st3 st4">SMIMO</text>
	</g>
	<g transform="matrix(1,0,0,1,706.05,577.5)">
		<text transform="matrix(1 0 0 1 0 17)" class="st3 st4">PTEPI</text>
	</g>
	<g transform="matrix(1,0,0,1,706.05,244.3571)">
		<text transform="matrix(1 0 0 1 0 17)" class="st3 st4">CSCUL</text>
	</g>
	<g transform="matrix(1,0,0,1,706.05,77.7857)">
		<text transform="matrix(1 0 0 1 0 17)" class="st3 st4">MOCCI</text>
	</g>
	<g transform="matrix(1,0,0,1,706.05,161.0714)">
		<text transform="matrix(1 0 0 1 0 17)" class="st3 st4">ISCAP</text>
	</g>
	<g transform="matrix(1,0,0,1,706.05,494.2143)">
		<text transform="matrix(1 0 0 1 0 17)" class="st3 st4">LHESP</text>
	</g>
	<g transform="matrix(1,0,0,1,706.05,-5.5)">
		<text transform="matrix(1 0 0 1 0 17)" class="st3 st4">TURTI</text>
	</g>
	<g transform="matrix(1,0,0,1,293.149,400.5179)">
		<text transform="matrix(1 0 0 1 0 18)" class="st5 st6">&lt;3&gt;</text>
	</g>
	<g transform="matrix(1,0,0,1,430.7827,56.9643)">
		<text transform="matrix(1 0 0 1 0 18)" class="st5 st6">&lt;6&gt;</text>
	</g>
	<g transform="matrix(1,0,0,1,430.7827,473.3929)">
		<text transform="matrix(1 0 0 1 0 18)" class="st5 st6">&lt;2&gt;</text>
	</g>
	<g transform="matrix(1,0,0,1,155.5153,322.4375)">
		<text transform="matrix(1 0 0 1 0 18)" class="st5 st6">&lt;4&gt;</text>
	</g>
	<g transform="matrix(1,0,0,1,568.4163,535.8571)">
		<text transform="matrix(1 0 0 1 0 18)" class="st5 st6">&lt;1&gt;</text>
	</g>
	<g transform="matrix(1,0,0,1,568.4163,119.4286)">
		<text transform="matrix(1 0 0 1 0 18)" class="st5 st6">&lt;5&gt;</text>
	</g>
</g>
</svg>
