<?xml version="1.0" encoding="utf-8"?>
<!-- Generator: Adobe Illustrator 19.0.0, SVG Export Plug-In . SVG Version: 6.00 Build 0)  -->
<svg version="1.1" id="Layer_1" xmlns="http://www.w3.org/2000/svg" xmlns:xlink="http://www.w3.org/1999/xlink" x="0px" y="0px"
	 viewBox="0 0 960 560" style="enable-background:new 0 0 960 560;" xml:space="preserve">
<style type="text/css">
	.st0{fill:none;stroke:#000000;stroke-width:3;stroke-miterlimit:10;}
	.st1{font-family:'CourierNewPSMT';}
	.st2{font-size:50px;}
</style>
<path class="st0" d="M729,6H13.2v184.2"/>
<path class="st0" d="M729,469.6H609.7v-33.1"/>
<path class="st0" d="M609.7,237.8H490.4v-49.7"/>
<path class="st0" d="M729,270.9H609.7v-33.1"/>
<path class="st0" d="M609.7,568.9H132.5V374.4"/>
<path class="st0" d="M729,204.7H609.7v33.1"/>
<path class="st0" d="M729,337.1H490.4v49.7"/>
<path class="st0" d="M729,535.8H609.7v33.1"/>
<path class="st0" d="M6,190.2h7.2"/>
<path class="st0" d="M729,602H609.7v-33.1"/>
<path class="st0" d="M490.4,386.8H371.1v-99.3"/>
<path class="st0" d="M251.8,179.8H132.5v194.5"/>
<path class="st0" d="M729,72.2H251.8v107.6"/>
<path class="st0" d="M371.1,287.4H251.8V179.8"/>
<path class="st0" d="M729,403.3H609.7v33.1"/>
<path class="st0" d="M490.4,188.1H371.1v99.3"/>
<path class="st0" d="M132.5,374.4H13.2V190.2"/>
<path class="st0" d="M609.7,436.4H490.4v-49.7"/>
<path class="st0" d="M729,138.4H490.4v49.7"/>
<text transform="matrix(1 0 0 1 734 19)" class="st1 st2">D</text>
<text transform="matrix(1 0 0 1 734 85.2222)" class="st1 st2">C</text>
<text transform="matrix(1 0 0 1 734 482.5556)" class="st1 st2">y+</text>
<text transform="matrix(1 0 0 1 734 416.3333)" class="st1 st2">x+</text>
<text transform="matrix(1 0 0 1 734 283.8889)" class="st1 st2">y*</text>
<text transform="matrix(1 0 0 1 734 217.6667)" class="st1 st2">x*</text>
<text transform="matrix(1 0 0 1 734 350.1111)" class="st1 st2">z+</text>
<text transform="matrix(1 0 0 1 734 548.7778)" class="st1 st2">B</text>
<text transform="matrix(1 0 0 1 734 615)" class="st1 st2">A</text>
<text transform="matrix(1 0 0 1 734 151.4444)" class="st1 st2">z*</text>
</svg>
