<?xml version="1.0" encoding="utf-8"?>
<!-- Generator: Adobe Illustrator 19.0.0, SVG Export Plug-In . SVG Version: 6.00 Build 0)  -->
<svg version="1.1" id="Layer_1" xmlns="http://www.w3.org/2000/svg" xmlns:xlink="http://www.w3.org/1999/xlink" x="0px" y="0px"
	 viewBox="0 0 960 560" style="enable-background:new 0 0 960 560;" xml:space="preserve">
<style type="text/css">
	.st0{fill:none;stroke:#000000;stroke-width:3;stroke-miterlimit:10;}
	.st1{font-family:'CourierNewPSMT';}
	.st2{font-size:50px;}
</style>
<path class="st0" d="M729,196.7H626.7v31.8"/>
<path class="st0" d="M729,260.2H626.7v-31.8"/>
<path class="st0" d="M729,6H13.2v176.8"/>
<path class="st0" d="M524.5,371.4H422.2v-95.3"/>
<path class="st0" d="M729,450.9H626.7v-31.8"/>
<path class="st0" d="M729,69.6H319.9v103.3"/>
<path class="st0" d="M626.7,546.2H217.7V359.5"/>
<path class="st0" d="M729,133.1H524.5v47.7"/>
<path class="st0" d="M6,182.8h7.2"/>
<path class="st0" d="M729,578H626.7v-31.8"/>
<path class="st0" d="M626.7,419.1H524.5v-47.7"/>
<path class="st0" d="M217.7,359.5H13.2V182.8"/>
<path class="st0" d="M422.2,276.1H319.9V172.8"/>
<path class="st0" d="M626.7,228.4H524.5v-47.7"/>
<path class="st0" d="M319.9,172.8H217.7v186.7"/>
<path class="st0" d="M729,514.4H626.7v31.8"/>
<path class="st0" d="M524.5,180.8H422.2v95.3"/>
<path class="st0" d="M729,387.3H626.7v31.8"/>
<path class="st0" d="M729,323.8H524.5v47.7"/>
<text transform="matrix(1 0 0 1 734 210.6667)" class="st1 st2">x*</text>
<text transform="matrix(1 0 0 1 734 147.1111)" class="st1 st2">z*</text>
<text transform="matrix(1 0 0 1 734 274.2222)" class="st1 st2">y*</text>
<text transform="matrix(1 0 0 1 734 592)" class="st1 st2">A</text>
<text transform="matrix(1 0 0 1 734 20)" class="st1 st2">D</text>
<text transform="matrix(1 0 0 1 734 401.3333)" class="st1 st2">x</text>
<text transform="matrix(1 0 0 1 734 528.4444)" class="st1 st2">B</text>
<text transform="matrix(1 0 0 1 734 464.8889)" class="st1 st2">y</text>
<text transform="matrix(1 0 0 1 734 83.5556)" class="st1 st2">C</text>
<text transform="matrix(1 0 0 1 734 337.7778)" class="st1 st2">z</text>
</svg>
